<svg width="158" height="38" viewBox="0 0 158 38" fill="none" xmlns="http://www.w3.org/2000/svg">
<path d="M41.5385 0H3.46154C2.54348 0 1.66303 0.36396 1.01386 1.01181C0.364697 1.65967 0 2.53834 0 3.45455V34.5455C0 35.4617 0.364697 36.3403 1.01386 36.9882C1.66303 37.636 2.54348 38 3.46154 38H41.5385C42.4565 38 43.337 37.636 43.9861 36.9882C44.6353 36.3403 45 35.4617 45 34.5455V3.45455C45 2.53834 44.6353 1.65967 43.9861 1.01181C43.337 0.36396 42.4565 0 41.5385 0ZM22.5 25.9091C19.7467 25.9062 17.107 24.8134 15.1601 22.8705C13.2133 20.9276 12.1182 18.2932 12.1154 15.5455C12.1154 15.0874 12.2977 14.648 12.6223 14.3241C12.9469 14.0002 13.3871 13.8182 13.8462 13.8182C14.3052 13.8182 14.7454 14.0002 15.07 14.3241C15.3946 14.648 15.5769 15.0874 15.5769 15.5455C15.5769 17.3779 16.3063 19.1352 17.6046 20.4309C18.903 21.7266 20.6639 22.4545 22.5 22.4545C24.3361 22.4545 26.097 21.7266 27.3954 20.4309C28.6937 19.1352 29.4231 17.3779 29.4231 15.5455C29.4231 15.0874 29.6054 14.648 29.93 14.3241C30.2546 14.0002 30.6948 13.8182 31.1538 13.8182C31.6129 13.8182 32.0531 14.0002 32.3777 14.3241C32.7023 14.648 32.8846 15.0874 32.8846 15.5455C32.8818 18.2932 31.7867 20.9276 29.8399 22.8705C27.893 24.8134 25.2533 25.9062 22.5 25.9091ZM3.46154 6.90909V3.45455H41.5385V6.90909H3.46154Z" fill="#FF2424"/>
<path d="M64.0139 14.9796C63.9254 14.0671 63.5458 13.3582 62.875 12.8529C62.2042 12.3477 61.2939 12.095 60.144 12.095C59.3626 12.095 58.7029 12.2081 58.1648 12.4344C57.6267 12.6531 57.2139 12.9585 56.9264 13.3507C56.6463 13.7428 56.5063 14.1878 56.5063 14.6855C56.4915 15.1003 56.5763 15.4623 56.7606 15.7715C56.9522 16.0807 57.2139 16.3484 57.5456 16.5747C57.8773 16.7934 58.2606 16.9857 58.6955 17.1516C59.1304 17.31 59.5948 17.4457 60.0887 17.5588L62.1231 18.0566C63.1109 18.2828 64.0175 18.5845 64.8431 18.9615C65.6687 19.3386 66.3837 19.8024 66.9881 20.3529C67.5926 20.9035 68.0606 21.552 68.3924 22.2986C68.7314 23.0452 68.9047 23.9012 68.912 24.8665C68.9047 26.2843 68.5508 27.5136 67.8506 28.5543C67.1577 29.5875 66.1552 30.3906 64.8431 30.9638C63.5384 31.5294 61.9647 31.8122 60.1219 31.8122C58.2938 31.8122 56.7016 31.5256 55.3453 30.9525C53.9964 30.3793 52.9423 29.5309 52.1831 28.4072C51.4312 27.276 51.0369 25.8771 51 24.2104H55.6328C55.6844 24.9872 55.9018 25.6357 56.2852 26.1561C56.6758 26.6689 57.1955 27.0573 57.8442 27.3213C58.5002 27.5777 59.241 27.7059 60.0666 27.7059C60.8774 27.7059 61.5814 27.5852 62.1784 27.3439C62.7829 27.1026 63.2509 26.767 63.5826 26.3371C63.9143 25.9072 64.0802 25.4133 64.0802 24.8552C64.0802 24.3348 63.9291 23.8974 63.6269 23.543C63.332 23.1885 62.8971 22.8869 62.3222 22.638C61.7546 22.3891 61.058 22.1629 60.2324 21.9593L57.7668 21.3258C55.8576 20.8507 54.3502 20.1078 53.2445 19.0973C52.1389 18.0867 51.5897 16.7255 51.5971 15.0136C51.5897 13.6109 51.9546 12.3854 52.6917 11.3371C53.4362 10.2888 54.4571 9.47059 55.7544 8.88235C57.0518 8.29412 58.526 8 60.1771 8C61.8578 8 63.3247 8.29412 64.5778 8.88235C65.8382 9.47059 66.8186 10.2888 67.5189 11.3371C68.2191 12.3854 68.5803 13.5995 68.6024 14.9796H64.0139Z" fill="black"/>
<path d="M75.5086 21.4389V31.4842H70.7984V8.31674H75.3759V17.1742H75.575C75.9583 16.1486 76.5774 15.3454 77.4325 14.7647C78.2876 14.1765 79.3601 13.8824 80.65 13.8824C81.8294 13.8824 82.8577 14.1463 83.7349 14.6742C84.6194 15.1946 85.305 15.9449 85.7914 16.9253C86.2853 17.8982 86.5286 19.0633 86.5212 20.4208V31.4842H81.811V21.2805C81.8184 20.2097 81.553 19.3763 81.0149 18.7805C80.4842 18.1848 79.7397 17.8869 78.7814 17.8869C78.1401 17.8869 77.5726 18.0264 77.0787 18.3054C76.5922 18.5845 76.2089 18.9917 75.9288 19.5271C75.656 20.0551 75.516 20.6923 75.5086 21.4389Z" fill="black"/>
<path d="M93.8254 31.8122C92.7419 31.8122 91.7762 31.6199 90.9285 31.2353C90.0809 30.8431 89.4101 30.2662 88.9162 29.5045C88.4297 28.7353 88.1865 27.7775 88.1865 26.6312C88.1865 25.6659 88.3597 24.8552 88.7061 24.1991C89.0526 23.543 89.5243 23.0151 90.1214 22.6154C90.7185 22.2157 91.3966 21.914 92.1559 21.7104C92.9225 21.5068 93.7259 21.3635 94.5662 21.2805C95.554 21.175 96.3501 21.0769 96.9545 20.9864C97.5589 20.8884 97.9975 20.7451 98.2703 20.5566C98.543 20.368 98.6794 20.089 98.6794 19.7195V19.6516C98.6794 18.9351 98.4582 18.3808 98.016 17.9887C97.5811 17.5965 96.9619 17.4005 96.1584 17.4005C95.3107 17.4005 94.6363 17.5928 94.135 17.9774C93.6338 18.3544 93.3021 18.8296 93.1399 19.4027L88.7835 19.0407C89.0047 17.9849 89.4396 17.0724 90.0882 16.3032C90.7369 15.5264 91.5735 14.9306 92.5981 14.5158C93.6301 14.0935 94.8242 13.8824 96.1805 13.8824C97.124 13.8824 98.027 13.9955 98.8894 14.2217C99.7592 14.448 100.53 14.7986 101.2 15.2738C101.878 15.7489 102.413 16.3597 102.804 17.1063C103.194 17.8454 103.39 18.7315 103.39 19.7647V31.4842H98.9226V29.0747H98.7899C98.5172 29.6176 98.1523 30.0965 97.6953 30.5113C97.2383 30.9186 96.6891 31.2391 96.0478 31.4729C95.4066 31.6991 94.6657 31.8122 93.8254 31.8122ZM95.1744 28.4864C95.8673 28.4864 96.4791 28.3469 97.0098 28.0679C97.5405 27.7813 97.957 27.3967 98.2592 26.914C98.5614 26.4314 98.7125 25.8846 98.7125 25.2738V23.4299C98.5651 23.5279 98.3624 23.6184 98.1044 23.7014C97.8538 23.7768 97.57 23.8484 97.253 23.9163C96.9361 23.9766 96.6191 24.0332 96.3022 24.086C95.9852 24.1312 95.6977 24.1727 95.4397 24.2104C94.8869 24.2934 94.4041 24.4253 93.9913 24.6063C93.5785 24.7873 93.2578 25.0324 93.0293 25.3416C92.8008 25.6433 92.6866 26.0204 92.6866 26.4729C92.6866 27.129 92.9188 27.6305 93.3832 27.9774C93.8549 28.3167 94.452 28.4864 95.1744 28.4864Z" fill="black"/>
<path d="M105.798 38V14.1086H110.442V17.0271H110.652C110.859 16.5596 111.157 16.0845 111.548 15.6018C111.946 15.1116 112.462 14.7044 113.096 14.3801C113.737 14.0483 114.533 13.8824 115.484 13.8824C116.723 13.8824 117.865 14.2142 118.912 14.8778C119.958 15.5339 120.795 16.5256 121.422 17.8529C122.048 19.1727 122.361 20.8281 122.361 22.819C122.361 24.7572 122.056 26.3937 121.444 27.7285C120.839 29.0558 120.014 30.0626 118.967 30.7489C117.928 31.4276 116.763 31.767 115.473 31.767C114.559 31.767 113.781 31.6124 113.14 31.3032C112.506 30.994 111.987 30.6056 111.581 30.138C111.176 29.6629 110.866 29.184 110.652 28.7014H110.509V38H105.798ZM110.409 22.7964C110.409 23.8296 110.549 24.7308 110.829 25.5C111.109 26.2692 111.515 26.8688 112.045 27.2986C112.576 27.721 113.221 27.9321 113.98 27.9321C114.747 27.9321 115.396 27.7172 115.926 27.2873C116.457 26.8499 116.859 26.2466 117.132 25.4774C117.412 24.7006 117.552 23.8069 117.552 22.7964C117.552 21.7934 117.415 20.911 117.143 20.1493C116.87 19.3876 116.468 18.7919 115.937 18.362C115.407 17.9321 114.754 17.7172 113.98 17.7172C113.214 17.7172 112.565 17.9246 112.034 18.3394C111.511 18.7541 111.109 19.3424 110.829 20.1041C110.549 20.8658 110.409 21.7632 110.409 22.7964Z" fill="black"/>
<path d="M124.256 38V14.1086H128.9V17.0271H129.11C129.317 16.5596 129.615 16.0845 130.006 15.6018C130.404 15.1116 130.92 14.7044 131.554 14.3801C132.195 14.0483 132.991 13.8824 133.942 13.8824C135.18 13.8824 136.323 14.2142 137.37 14.8778C138.416 15.5339 139.253 16.5256 139.879 17.8529C140.506 19.1727 140.819 20.8281 140.819 22.819C140.819 24.7572 140.513 26.3937 139.902 27.7285C139.297 29.0558 138.472 30.0626 137.425 30.7489C136.385 31.4276 135.221 31.767 133.931 31.767C133.017 31.767 132.239 31.6124 131.598 31.3032C130.964 30.994 130.444 30.6056 130.039 30.138C129.633 29.6629 129.324 29.184 129.11 28.7014H128.966V38H124.256ZM128.867 22.7964C128.867 23.8296 129.007 24.7308 129.287 25.5C129.567 26.2692 129.973 26.8688 130.503 27.2986C131.034 27.721 131.679 27.9321 132.438 27.9321C133.205 27.9321 133.853 27.7172 134.384 27.2873C134.915 26.8499 135.317 26.2466 135.589 25.4774C135.87 24.7006 136.01 23.8069 136.01 22.7964C136.01 21.7934 135.873 20.911 135.6 20.1493C135.328 19.3876 134.926 18.7919 134.395 18.362C133.865 17.9321 133.212 17.7172 132.438 17.7172C131.672 17.7172 131.023 17.9246 130.492 18.3394C129.969 18.7541 129.567 19.3424 129.287 20.1041C129.007 20.8658 128.867 21.7632 128.867 22.7964Z" fill="black"/>
<path d="M145.075 38C144.478 38 143.917 37.951 143.394 37.8529C142.878 37.7624 142.45 37.6456 142.111 37.5023L143.173 33.905C143.726 34.0784 144.223 34.1727 144.665 34.1878C145.115 34.2029 145.502 34.0973 145.826 33.871C146.158 33.6448 146.427 33.2602 146.634 32.7172L146.91 31.9819L140.818 14.1086H145.771L149.287 26.8688H149.464L153.013 14.1086H158L151.399 33.362C151.082 34.2971 150.651 35.1116 150.105 35.8054C149.567 36.5068 148.886 37.046 148.06 37.4231C147.234 37.8077 146.239 38 145.075 38Z" fill="black"/>
</svg>
